#!OML:ASF E:\CV Data\Top Level 1\Subject 1\Session 1\player.ASF
:FULLY-SPECIFIED
:DEGREES
601
root -1.31742 17.8092 -10.0058 -4.37404 67.9034 -14.7737
lowerback 7.22856 1.02176 11.5833
upperback -2.81446 2.73769 2.192
thorax -6.67409 0.920817 -4.50896
lowerneck 3.6281 -17.5981 -16.3361
upperneck -29.028 -21.0459 22.6698
head -4.74948 -10.5931 10.23
rclavicle 7.65321e-015 1.51076e-014
rhumerus 93.966 -26.761 -96.7939
rradius 26.9905
rwrist -54.4148
rhand -17.9388 -7.08295
rfingers 7.12502
rthumb 8.32943 -36.8987
lclavicle 7.65321e-015 1.51076e-014
lhumerus -8.78395 -17.3154 71.0509
lradius 81.101
lwrist 13.5055
lhand -7.83659 4.30052
lfingers 7.12502
lthumb 18.0661 33.4815
rfemur -15.1215 0.117277 27.8866
rtibia 27.5191
rfoot -17.9012 -22.2501
rtoes 6.19619
lfemur -17.5945 -0.621312 -13.9839
ltibia 27.7765
lfoot -14.4776 -12.7765
ltoes 16.2181
602
root -1.3255 17.8162 -10.0168 -4.00477 68.147 -14.5359
lowerback 7.29548 1.07299 11.8449
upperback -2.82236 2.85231 2.27692
thorax -6.69949 0.967293 -4.57854
lowerneck 3.36987 -17.6621 -16.3946
upperneck -28.6269 -21.175 22.4641
head -4.58824 -10.6346 10.0917
rclavicle -4.45278e-014 -2.94201e-014
rhumerus 94.13 -27.0197 -97.8623
rradius 26.8961
rwrist -54.998
rhand -17.8181 -7.16467
rfingers 7.12502
rthumb 8.44589 -36.9758
lclavicle -4.45278e-014 -2.94201e-014
lhumerus -10.27 -16.976 72.1273
lradius 80.7552
lwrist 13.4346
lhand -8.06839 4.33135
lfingers 7.12502
lthumb 17.843 33.5328
rfemur -15.3585 0.138716 27.6965
rtibia 27.5709
rfoot -17.9389 -22.3273
rtoes 6.35362
lfemur -17.7783 -0.605919 -14.1605
ltibia 27.6131
lfoot -14.3077 -12.9748
ltoes 16.4116
603
root -1.33386 17.8219 -10.0281 -3.67919 68.3666 -14.3395
lowerback 7.36598 1.1332 12.1139
upperback -2.82604 2.98182 2.3775
thorax -6.72001 1.02166 -4.63708
lowerneck 3.07529 -17.7385 -16.4684
upperneck -28.179 -21.3222 22.2435
head -4.40528 -10.6825 9.94117
rclavicle 2.31584e-014 1.43125e-014
rhumerus 94.435 -27.2243 -99.1797
rradius 26.7014
rwrist -55.2297
rhand -17.5946 -7.17352
rfingers 7.12502
rthumb 8.66158 -36.9758
lclavicle 2.31584e-014 1.43125e-014
lhumerus -11.7035 -16.6381 73.1662
lradius 80.3627
lwrist 13.3363
lhand -8.31431 4.38721
lfingers 7.12502
lthumb 17.6064 33.61
rfemur -15.5801 0.153659 27.5351
rtibia 27.6129
rfoot -17.9316 -22.4067
rtoes 6.348
lfemur -17.9681 -0.613717 -14.3152
ltibia 27.4775
lfoot -14.1544 -13.1263
ltoes 16.524
604
root -1.34216 17.8272 -10.0396 -3.39056 68.5607 -14.1703
lowerback 7.44463 1.20033 12.3827
upperback -2.82145 3.12316 2.49526
thorax -6.73468 1.08303 -4.67855
lowerneck 2.75321 -17.8216 -16.5941
upperneck -27.6862 -21.4778 22.0445
head -4.19454 -10.7328 9.79552
rclavicle -3.37934e-014 -2.62396e-014
rhumerus 94.8815 -27.3686 -100.761
rradius 26.4162
rwrist -55.0942
rhand -17.2148 -7.05804
rfingers 7.12502
rthumb 9.02807 -36.8449
lclavicle -3.37934e-014 -2.62396e-014
lhumerus -13.0813 -16.2924 74.1663
lradius 79.931
lwrist 13.2411
lhand -8.55915 4.47483
lfingers 7.12502
lthumb 17.3708 33.7186
rfemur -15.7806 0.162476 27.3901
rtibia 27.6404
rfoot -17.9015 -22.4665
rtoes 6.29292
lfemur -18.1529 -0.652859 -14.4538
ltibia 27.3672
lfoot -14.0144 -13.2218
ltoes 16.5565
605
root -1.35044 17.8324 -10.0512 -3.14328 68.7269 -14.0326
lowerback 7.53439 1.2835 12.6599
upperback -2.80761 3.28824 2.61321
thorax -6.7407 1.15649 -4.72716
lowerneck 2.41452 -17.922 -16.7231
upperneck -27.1787 -21.651 21.8598
head -3.97226 -10.7929 9.65013
rclavicle -7.34509e-014 -9.54166e-015
rhumerus 95.4384 -27.5038 -102.56
rradius 26.0817
rwrist -54.6567
rhand -16.7338 -6.8038
rfingers 7.12502
rthumb 9.49218 -36.57
lclavicle -7.34509e-014 -9.54166e-015
lhumerus -14.3795 -15.9747 75.1157
lradius 79.4607
lwrist 13.1819
lhand -8.79341 4.58899
lfingers 7.12502
lthumb 17.1453 33.8525
rfemur -15.9581 0.198336 27.2623
rtibia 27.6501
rfoot -17.853 -22.5339
rtoes 6.218
lfemur -18.3287 -0.730643 -14.5725
ltibia 27.2779
lfoot -13.8819 -13.2509
ltoes 16.5248
606
root -1.3585 17.8374 -10.0624 -2.90242 68.8698 -13.8913
lowerback 7.62715 1.37482 12.9203
upperback -2.78322 3.46336 2.74192
thorax -6.73578 1.23701 -4.75599
lowerneck 2.06966 -18.0228 -16.8906
upperneck -26.6658 -21.8198 21.7075
head -3.73989 -10.8508 9.51879
rclavicle -1.45113e-014 -1.90833e-014
rhumerus 96.0073 -27.6458 -104.419
rradius 25.7554
rwrist -54.096
rhand -16.3635 -6.59396
rfingers 7.12502
rthumb 9.8495 -36.3436
lclavicle -1.45113e-014 -1.90833e-014
lhumerus -15.6151 -15.6534 76.0245
lradius 78.9599
lwrist 13.151
lhand -9.01331 4.70518
lfingers 7.12502
lthumb 16.9336 33.987
rfemur -16.1203 0.215789 27.1394
rtibia 27.6489
rfoot -17.7867 -22.575
rtoes 6.11157
lfemur -18.4915 -0.845452 -14.6859
ltibia 27.1985
lfoot -13.7528 -13.2203
ltoes 16.4361
607
root -1.36642 17.8425 -10.0735 -2.63414 68.9944 -13.7153
lowerback 7.72154 1.47507 13.1533
upperback -2.75438 3.64767 2.87025
thorax -6.72577 1.32367 -4.77097
lowerneck 1.7342 -18.1191 -17.0525
upperneck -26.1667 -21.9762 21.5753
head -3.5139 -10.9052 9.39735
rclavicle 1.98785e-016 1.59028e-014
rhumerus 96.5625 -27.8311 -106.29
rradius 25.4354
rwrist -53.5359
rhand -16.3474 -6.55323
rfingers 7.12502
rthumb 9.86497 -36.3021
lclavicle 1.98785e-016 1.59028e-014
lhumerus -16.7943 -15.3335 76.8873
lradius 78.4342
lwrist 13.1392
lhand -9.19771 4.80388
lfingers 7.12502
lthumb 16.7561 34.1008
rfemur -16.2751 0.246089 27.0081
rtibia 27.6433
rfoot -17.7163 -22.6224
rtoes 6.01149
lfemur -18.6427 -0.989209 -14.8063
ltibia 27.1206
lfoot -13.623 -13.1421
ltoes 16.3269
608
root -1.37423 17.8475 -10.084 -2.30548 69.1071 -13.476
lowerback 7.81053 1.5956 13.3524
upperback -2.72135 3.85283 2.98397
thorax -6.70415 1.42235 -4.78482
lowerneck 1.40325 -18.2172 -17.1498
upperneck -25.7023 -22.1242 21.4447
head -3.30848 -10.96 9.27473
rclavicle -3.43897e-014 -6.99722e-014
rhumerus 97.0375 -28.1775 -107.987
rradius 25.0965
rwrist -53.1866
rhand -16.9766 -6.74539
rfingers 7.12502
rthumb 9.25795 -36.5221
lclavicle -3.43897e-014 -6.99722e-014
lhumerus -17.9011 -15.0476 77.705
lradius 77.8822
lwrist 13.1002
lhand -9.33196 4.85155
lfingers 7.12502
lthumb 16.6269 34.1594
rfemur -16.4346 0.276828 26.859
rtibia 27.644
rfoot -17.647 -22.6754
rtoes 5.91145
lfemur -18.7859 -1.12675 -14.9467
ltibia 27.0356
lfoot -13.4904 -13.0608
ltoes 16.2311
609
root -1.38203 17.8523 -10.0934 -1.90465 69.2158 -13.1606
lowerback 7.89255 1.72826 13.4998
upperback -2.6866 4.06623 3.08733
thorax -6.67629 1.52733 -4.78188
lowerneck 1.08471 -18.3044 -17.1899
upperneck -25.2681 -22.2496 21.3184
head -3.12431 -11.0081 9.15474
rclavicle -9.93923e-016 4.77083e-015
rhumerus 97.6255 -28.6251 -109.813
rradius 24.5658
rwrist -52.8272
rhand -17.9448 -7.12338
rfingers 7.12502
rthumb 8.32365 -36.9394
lclavicle -9.93923e-016 4.77083e-015
lhumerus -18.9537 -14.7637 78.4786
lradius 77.3128
lwrist 12.9905
lhand -9.40084 4.82185
lfingers 7.12502
lthumb 16.5606 34.1352
rfemur -16.6004 0.31606 26.688
rtibia 27.6573
rfoot -17.5923 -22.7455
rtoes 5.83604
lfemur -18.9189 -1.24969 -15.1107
ltibia 26.9377
lfoot -13.3529 -12.9981
ltoes 16.1842
610
root -1.38986 17.8569 -10.1015 -1.43034 69.3262 -12.766
lowerback 7.97127 1.86638 13.5969
upperback -2.65385 4.27971 3.17683
thorax -6.64989 1.63375 -4.7661
lowerneck 0.811206 -18.3895 -17.1998
upperneck -24.8927 -22.3685 21.2135
head -2.96627 -11.0577 9.04886
rclavicle -3.3197e-014 3.49861e-014
rhumerus 98.7686 -28.9478 -112.618
rradius 23.6705
rwrist -51.727
rhand -18.7096 -7.43085
rfingers 7.12502
rthumb 7.58543 -37.2748
lclavicle -3.3197e-014 3.49861e-014
lhumerus -19.9688 -14.4707 79.1974
lradius 76.7401
lwrist 12.7723
lhand -9.39643 4.72387
lfingers 7.12502
lthumb 16.5648 34.0369
rfemur -16.7713 0.353478 26.4963
rtibia 27.6867
rfoot -17.5508 -22.8346
rtoes 5.77614
lfemur -19.0409 -1.34347 -15.3001
ltibia 26.8262
lfoot -13.2139 -12.9746
ltoes 16.1783
611
root -1.39774 17.8612 -10.1079 -0.91853 69.4388 -12.3276
lowerback 8.04685 1.99932 13.6449
upperback -2.62444 4.48067 3.26556
thorax -6.63026 1.73546 -4.72299
lowerneck 0.596078 -18.4608 -17.205
upperneck -24.5783 -22.4695 21.1324
head -2.83546 -11.1017 8.96353
rclavicle -2.127e-014 9.54166e-015
rhumerus 100.571 -29.0212 -116.688
rradius 22.4738
rwrist -49.6268
rhand -18.7481 -7.50167
rfingers 7.12502
rthumb 7.54834 -37.347
lclavicle -2.127e-014 9.54166e-015
lhumerus -20.9693 -14.1336 79.8636
lradius 76.1778
lwrist 12.4178
lhand -9.3356 4.56405
lfingers 7.12502
lthumb 16.6234 33.8722
rfemur -16.9427 0.404016 26.2969
rtibia 27.7315
rfoot -17.5324 -22.9502
rtoes 5.76506
lfemur -19.1497 -1.40758 -15.4984
ltibia 26.7031
lfoot -13.0745 -12.9979
ltoes 16.2259
612
root -1.4057 17.8652 -10.1124 -0.40731 69.552 -11.8828
lowerback 8.12139 2.10398 13.6507
upperback -2.60004 4.64173 3.37334
thorax -6.62722 1.81878 -4.63258
lowerneck 0.445189 -18.4978 -17.2838
upperneck -24.2977 -22.5291 21.1079
head -2.71418 -11.1262 8.91739
rclavicle -2.5842e-014 -3.65764e-014
rhumerus 102.694 -28.8847 -121.576
rradius 21.2522
rwrist -46.9101
rhand -17.8054 -7.27744
rfingers 7.12502
rthumb 8.45817 -37.0881
lclavicle -2.5842e-014 -3.65764e-014
lhumerus -21.9932 -13.6879 80.4698
lradius 75.6471
lwrist 11.9345
lhand -9.23677 4.37053
lfingers 7.12502
lthumb 16.7185 33.6706
rfemur -17.1095 0.469197 26.1063
rtibia 27.7905
rfoot -17.5289 -23.0964
rtoes 5.77588
lfemur -19.2447 -1.44241 -15.6893
ltibia 26.5735
lfoot -12.9377 -13.0662
ltoes 16.3024
613
root -1.41357 17.8687 -10.1152 0.0878452 69.6682 -11.4444
lowerback 8.1974 2.18604 13.6279
upperback -2.57927 4.77136 3.49119
thorax -6.63788 1.88722 -4.51294
lowerneck 0.340831 -18.5164 -17.4024
upperneck -24.0399 -22.5686 21.1134
head -2.60094 -11.1417 8.89367
rclavicle 4.59193e-014 6.36111e-015
rhumerus 104.664 -28.7622 -126.533
rradius 20.3505
rwrist -44.2199
rhand -15.9039 -6.81384
rfingers 7.12502
rthumb 10.2929 -36.542
lclavicle 4.59193e-014 6.36111e-015
lhumerus -23.0279 -13.1711 81.0123
lradius 75.1515
lwrist 11.3626
lhand -9.13896 4.18256
lfingers 7.12502
lthumb 16.8127 33.4747
rfemur -17.2664 0.546166 25.9265
rtibia 27.861
rfoot -17.5405 -23.2655
rtoes 5.81521
lfemur -19.3243 -1.45841 -15.8681
ltibia 26.4429
lfoot -12.8087 -13.17
ltoes 16.3978
614
root -1.42127 17.8718 -10.1166 0.555442 69.7857 -11.0287
lowerback 8.26847 2.24373 13.5848
upperback -2.55905 4.8676 3.62811
thorax -6.65586 1.94039 -4.35849
lowerneck 0.238073 -18.5117 -17.5641
upperneck -23.7568 -22.5798 21.1327
head -2.47819 -11.1417 8.8807
rclavicle -9.50191e-014 1.59028e-014
rhumerus 105.624 -29.2101 -129.99
rradius 20.0938
rwrist -42.8904
rhand -13.5731 -6.46163
rfingers 7.12502
rthumb 12.5407 -36.0653
lclavicle -9.50191e-014 1.59028e-014
lhumerus -24.0717 -12.5852 81.4955
lradius 74.7004
lwrist 10.7764
lhand -9.05972 4.02473
lfingers 7.12502
lthumb 16.889 33.3104
rfemur -17.4195 0.61307 25.7624
rtibia 27.942
rfoot -17.5598 -23.4312
rtoes 5.86747
lfemur -19.3966 -1.46431 -16.0299
ltibia 26.3178
lfoot -12.6958 -13.294
ltoes 16.4713
